<svg width="80" height="80" viewBox="0 0 80 80" fill="none" xmlns="http://www.w3.org/2000/svg">
<rect opacity="0.5" width="80" height="80" rx="12" fill="#1F1B2D"/>
<g clip-path="url(#clip0_5762_40043)">
<path d="M37.2794 47.7542C37.0319 47.7542 36.791 47.8546 36.6157 48.029C36.4413 48.2033 36.3419 48.4452 36.3419 48.6917C36.3419 48.9383 36.4413 49.1802 36.6157 49.3546C36.791 49.5289 37.0319 49.6292 37.2794 49.6292C37.526 49.6292 37.7669 49.529 37.9422 49.3546C38.1166 49.1802 38.216 48.9383 38.216 48.6917C38.216 48.4452 38.1166 48.2033 37.9422 48.029C37.7668 47.8546 37.526 47.7542 37.2794 47.7542Z" fill="url(#paint0_linear_5762_40043)"/>
<path d="M25.0375 42.9469C24.3842 42.4894 23.5916 42.3135 22.8062 42.4523C22.0207 42.5907 21.336 43.0269 20.8785 43.6803C20.421 44.3337 20.2453 45.1262 20.3838 45.9117C20.5223 46.6973 20.9584 47.3819 21.6119 47.8394C22.1197 48.1949 22.7113 48.3803 23.3184 48.3803C23.4926 48.3803 23.6681 48.3651 23.8434 48.3341C25.4649 48.0483 26.5517 46.4964 26.2658 44.8748C26.1271 44.0889 25.691 43.4044 25.0375 42.9469ZM23.5177 46.4874C23.2254 46.5388 22.9305 46.4737 22.6873 46.3033C22.4441 46.1331 22.2819 45.8784 22.2303 45.586C22.1787 45.2937 22.2441 44.9988 22.4144 44.7557C22.5847 44.5125 22.8394 44.3502 23.1317 44.2987C23.1969 44.2872 23.2622 44.2815 23.327 44.2815C23.5529 44.2815 23.7731 44.3504 23.962 44.4827C24.2052 44.6529 24.3675 44.9077 24.4191 45.2C24.5255 45.8034 24.121 46.381 23.5177 46.4874Z" fill="url(#paint1_linear_5762_40043)"/>
<path d="M48.7478 37.8793C47.9622 38.0178 47.2777 38.4539 46.8201 39.1073C46.3625 39.7608 46.1869 40.5532 46.3254 41.3388C46.4639 42.1244 46.9 42.809 47.5534 43.2666C48.0612 43.6221 48.6528 43.8074 49.2599 43.8074C49.4341 43.8074 49.6097 43.7922 49.7849 43.7613C51.4064 43.4752 52.4931 41.9234 52.2073 40.3018C51.9213 38.6802 50.3697 37.5929 48.7478 37.8793ZM49.4593 41.9147C49.167 41.966 48.8721 41.9008 48.629 41.7306C48.3858 41.5603 48.2235 41.3055 48.172 41.0132C48.1204 40.7209 48.1857 40.4259 48.3561 40.1828C48.5263 39.9397 48.7811 39.7774 49.0734 39.7258C49.1383 39.7144 49.203 39.7088 49.2669 39.7088C49.7957 39.7088 50.2659 40.0888 50.3608 40.6272C50.4672 41.2306 50.0627 41.8083 49.4593 41.9147Z" fill="url(#paint2_linear_5762_40043)"/>
<path d="M39.9459 29.9626C40.1924 29.9626 40.4343 29.8624 40.6087 29.6871C40.7831 29.5127 40.8834 29.2717 40.8834 29.0243C40.8834 28.7777 40.7831 28.5368 40.6087 28.3615C40.4343 28.1872 40.1924 28.0868 39.9459 28.0868C39.6993 28.0868 39.4574 28.1871 39.2831 28.3615C39.1087 28.5358 39.0084 28.7777 39.0084 29.0243C39.0084 29.2718 39.1087 29.5127 39.2831 29.6871C39.4574 29.8624 39.6993 29.9626 39.9459 29.9626Z" fill="url(#paint3_linear_5762_40043)"/>
<path d="M41.3702 44.587C41.8763 44.4977 42.3073 44.1876 42.5529 43.7363C42.7985 43.2849 42.8245 42.7545 42.6246 42.281L41.8137 40.3621C41.5072 39.6369 40.7516 39.2256 39.9764 39.3626L31.5551 40.8475C30.7797 40.9842 30.2102 41.6288 30.1704 42.4151L30.0647 44.4958C30.0387 45.009 30.2446 45.4984 30.6298 45.8386C30.9402 46.1127 31.3322 46.2594 31.7375 46.2594C31.8353 46.2594 31.9339 46.2508 32.0322 46.2335L41.3702 44.587ZM31.9498 44.3442L32.035 42.6667L40.1476 41.2363L40.8014 42.7834L31.9498 44.3442Z" fill="url(#paint4_linear_5762_40043)"/>
<path d="M63.0625 46.5048H60.5312C60.3495 46.5048 60.1719 46.5576 60.0196 46.6567L56.4125 49.0057C56.0085 49.0948 54.9301 49.3332 53.8505 49.5727C53.4516 49.6611 53.0536 49.7495 52.6883 49.8309C52.6822 49.7651 52.6741 49.6991 52.6624 49.633L52.2002 47.0118L53.3786 46.804C54.8744 46.5403 55.8768 45.1087 55.613 43.613L54.6452 38.1245C54.2705 35.9994 52.5674 34.4368 50.5412 34.1376L50.0096 32.9284L50.6438 32.8165C52.1711 32.5473 53.1945 31.0856 52.9252 29.5584C52.6558 28.0312 51.1948 27.0075 49.667 27.2771L47.6792 27.6276L46.9964 26.0747C46.0954 24.0253 43.9263 22.8655 41.7217 23.2542L24.4044 26.3077C22.2024 26.6959 20.5609 28.5252 20.4128 30.7564L20.3 32.4552L18.3248 32.8035C17.585 32.9339 16.9402 33.3446 16.5094 33.96C16.0785 34.5754 15.913 35.3217 16.0434 36.0616C16.1738 36.8014 16.5847 37.4461 17.2 37.877C17.6782 38.2118 18.2354 38.3864 18.8073 38.3864C18.9713 38.3864 19.1366 38.3721 19.3016 38.3429L19.9163 38.2346L19.8285 39.557C18.0333 40.5336 16.9721 42.5804 17.3461 44.7013L18.3139 50.1897C18.5492 51.5243 19.7143 52.4662 21.0253 52.4662C21.1834 52.4662 21.3437 52.4525 21.5048 52.4241L22.6832 52.2163L23.1454 54.8374C23.3505 56.0008 24.366 56.8216 25.5086 56.8216C25.6465 56.8216 25.7863 56.8096 25.9267 56.7849L27.656 56.4799C28.2876 56.3685 28.838 56.0179 29.2059 55.4927C29.5737 54.9673 29.715 54.3302 29.6036 53.6986L29.1414 51.0774L33.7335 50.2677C34.2434 50.1778 34.5839 49.6916 34.494 49.1817C34.4042 48.6719 33.9179 48.3314 33.408 48.4213L21.1794 50.5776C20.7015 50.6627 20.2446 50.3418 20.1604 49.8642L19.1927 44.3758C18.9041 42.7392 20.0008 41.173 21.6373 40.8845L49.3077 36.0054C50.9444 35.7168 52.5103 36.8135 52.7989 38.45L53.7667 43.9385C53.8509 44.4161 53.5308 44.8732 53.0532 44.9575L40.7945 47.1191C40.2846 47.209 39.9441 47.6953 40.034 48.2051C40.1239 48.715 40.611 49.0556 41.12 48.9655L45.742 48.1505L46.2042 50.7716C46.3156 51.4032 46.6662 51.9535 47.1916 52.3214C47.5998 52.6072 48.0754 52.7563 48.5636 52.7563C48.5976 52.7563 48.6318 52.7533 48.666 52.7518C48.4156 53.044 48.1348 53.3719 47.8159 53.744C47.3365 54.3035 47.23 55.0669 47.538 55.7363C47.8459 56.4059 48.4952 56.8217 49.2322 56.8217H63.0625C63.5803 56.8217 64 56.4019 64 55.8842V47.4423C63.9999 46.9246 63.5802 46.5048 63.0625 46.5048ZM27.2951 51.4032L27.7573 54.0243C27.7817 54.1626 27.7507 54.3022 27.6702 54.4173C27.5897 54.5323 27.469 54.6092 27.3307 54.6336L25.6013 54.9385C25.3155 54.9886 25.0424 54.7975 24.9921 54.5119L24.5299 51.8907L27.2951 51.4032ZM49.9928 29.1235C50.5022 29.0342 50.9891 29.375 51.0788 29.8839C51.1686 30.393 50.8274 30.8802 50.3184 30.97L49.233 31.1614L48.4562 29.3944L49.9928 29.1235ZM42.0475 25.1005C43.3988 24.8621 44.7279 25.5731 45.2801 26.8291L48.5372 34.2373L35.8781 36.4695L38.5807 32.6097C38.8777 32.1857 38.7746 31.6011 38.3505 31.3041C37.9263 31.007 37.3418 31.1102 37.0448 31.5343L33.2668 36.9299L27.266 37.988L35.479 26.2587L42.0475 25.1005ZM24.7299 28.1542L32.8678 26.7193L24.6549 38.4485L21.7472 38.9612L22.2838 30.8806C22.3745 29.5133 23.3804 28.3921 24.7299 28.1542ZM18.9759 36.4966C18.7292 36.5396 18.4804 36.4848 18.2754 36.3412C18.0703 36.1976 17.9334 35.9827 17.8899 35.7361C17.8001 35.2269 18.1413 34.7398 18.6504 34.65L20.1721 34.3817L20.0443 36.3082L18.9759 36.4966ZM48.267 50.7855C48.1518 50.705 48.0751 50.5843 48.0507 50.446L47.5885 47.8249L50.3537 47.3374L50.8159 49.9585C50.8663 50.244 50.6749 50.5174 50.3894 50.5677L48.66 50.8727C48.5214 50.8968 48.382 50.866 48.267 50.7855ZM62.125 54.9468H49.2544C50.5417 53.4442 51.4496 52.3849 51.8268 51.9451C52.6658 51.7548 55.2211 51.1887 56.9833 50.7997C57.0934 50.7754 57.1983 50.7313 57.2928 50.6698L60.8095 48.3797H62.1249L62.125 54.9468Z" fill="url(#paint5_linear_5762_40043)"/>
</g>
<defs>
<linearGradient id="paint0_linear_5762_40043" x1="16" y1="56.8217" x2="32.853" y2="7.97557" gradientUnits="userSpaceOnUse">
<stop stop-color="#5D3CF2"/>
<stop offset="1" stop-color="#FD5631"/>
</linearGradient>
<linearGradient id="paint1_linear_5762_40043" x1="16" y1="56.8217" x2="32.853" y2="7.97557" gradientUnits="userSpaceOnUse">
<stop stop-color="#5D3CF2"/>
<stop offset="1" stop-color="#FD5631"/>
</linearGradient>
<linearGradient id="paint2_linear_5762_40043" x1="16" y1="56.8217" x2="32.853" y2="7.97557" gradientUnits="userSpaceOnUse">
<stop stop-color="#5D3CF2"/>
<stop offset="1" stop-color="#FD5631"/>
</linearGradient>
<linearGradient id="paint3_linear_5762_40043" x1="16" y1="56.8217" x2="32.853" y2="7.97557" gradientUnits="userSpaceOnUse">
<stop stop-color="#5D3CF2"/>
<stop offset="1" stop-color="#FD5631"/>
</linearGradient>
<linearGradient id="paint4_linear_5762_40043" x1="16" y1="56.8217" x2="32.853" y2="7.97557" gradientUnits="userSpaceOnUse">
<stop stop-color="#5D3CF2"/>
<stop offset="1" stop-color="#FD5631"/>
</linearGradient>
<linearGradient id="paint5_linear_5762_40043" x1="16" y1="56.8217" x2="32.853" y2="7.97557" gradientUnits="userSpaceOnUse">
<stop stop-color="#5D3CF2"/>
<stop offset="1" stop-color="#FD5631"/>
</linearGradient>
<clipPath id="clip0_5762_40043">
<rect width="48" height="48" fill="white" transform="translate(16 16)"/>
</clipPath>
</defs>
</svg>
