<svg width="80" height="80" viewBox="0 0 80 80" fill="none" xmlns="http://www.w3.org/2000/svg">
<rect opacity="0.5" width="80" height="80" rx="12" fill="#1F1B2D"/>
<g clip-path="url(#clip0_5762_40031)">
<path d="M43.0316 36.0634C43.0316 34.3919 41.6718 33.0322 40.0004 33.0322C38.329 33.0322 36.9692 34.392 36.9692 36.0634C36.9692 37.7348 38.329 39.0946 40.0004 39.0946C41.6718 39.0946 43.0316 37.7348 43.0316 36.0634ZM38.8441 36.0634C38.8441 35.4258 39.3628 34.9072 40.0003 34.9072C40.6378 34.9072 41.1565 35.4259 41.1565 36.0634C41.1565 36.7009 40.6378 37.2196 40.0003 37.2196C39.3628 37.2196 38.8441 36.7009 38.8441 36.0634Z" fill="url(#paint0_linear_5762_40031)"/>
<path d="M63.9271 49.7887L62.3862 46.109L63.2239 44.8326C63.9169 43.7766 64.1217 42.4726 63.7859 41.255L63.0072 38.4319C62.6659 37.1943 61.8851 36.1276 60.8085 35.4283C60.635 35.3156 60.4301 35.2652 60.2262 35.2809C59.7855 26.0489 53.0746 18.1854 43.9436 16.3826C43.4359 16.2822 42.9425 16.6129 42.8422 17.1208C42.7419 17.6288 43.0723 18.1219 43.5804 18.2222C52.1529 19.9147 58.3749 27.4959 58.3749 36.2486C58.3749 36.5079 58.3674 36.7688 58.3566 37.0286L56.3992 38.0742C56.4658 37.4692 56.4999 36.8584 56.4999 36.2486C56.4999 35.2308 56.4067 34.2344 56.2294 33.267C56.2255 33.2405 56.2204 33.2144 56.2143 33.1885C54.7753 25.5476 48.0528 19.7488 40.0001 19.7488C31.944 19.7488 25.2191 25.5525 23.784 33.1982C23.7792 33.2201 23.7747 33.2419 23.7714 33.2641C23.5937 34.2325 23.5003 35.2298 23.5003 36.2486C23.5003 36.8587 23.5345 37.4692 23.601 38.0742L21.6426 37.0282C21.6318 36.7693 21.6253 36.5081 21.6253 36.2486C21.6253 27.4847 27.8568 19.9016 36.4424 18.2178C36.9504 18.1181 37.2816 17.6255 37.1819 17.1174C37.0822 16.6094 36.5902 16.2782 36.0815 16.3779C26.9362 18.1715 20.2148 26.0372 19.7739 35.281C19.57 35.2653 19.3652 35.3156 19.1916 35.4284C18.1151 36.1277 17.3343 37.1944 16.9929 38.432L16.2143 41.2551C15.8784 42.4727 16.0833 43.7767 16.7763 44.8327L17.6139 46.1091L16.073 49.7887C15.873 50.2663 16.0981 50.8156 16.5757 51.0155C16.694 51.0651 16.8166 51.0886 16.9373 51.0886C17.3039 51.0886 17.6521 50.8721 17.8026 50.5128L19.2364 47.0887L23.3139 47.9488L19.7756 62.8441C19.656 63.3479 19.9673 63.8533 20.471 63.973C20.5439 63.9903 20.6167 63.9985 20.6884 63.9985C21.1127 63.9985 21.4974 63.7083 21.5998 63.2775L24.8338 49.6631C28.6562 53.9772 34.1764 56.4983 40 56.4983C43.2246 56.4983 46.4334 55.7214 49.2796 54.2516C51.4977 53.106 53.5054 51.5374 55.1663 49.6639L58.4001 63.2774C58.5025 63.7083 58.8871 63.9984 59.3115 63.9984C59.3832 63.9984 59.456 63.9901 59.5289 63.9729C60.0327 63.8532 60.344 63.3478 60.2243 62.844L56.6862 47.9489L60.7637 47.0888L62.1975 50.5129C62.348 50.8723 62.6961 51.0886 63.0627 51.0886C63.1834 51.0886 63.3061 51.0651 63.4244 51.0156C63.902 50.8156 64.127 50.2663 63.9271 49.7887ZM59.9426 38.3072C60.0862 38.2304 60.2074 38.1176 60.2942 37.9797L60.5113 37.635C60.8306 38.0079 61.0669 38.4491 61.1997 38.9305L61.9783 41.7538C62.1708 42.4515 62.0534 43.1989 61.6563 43.8041L60.7574 45.1739L55.8637 46.2063L54.9971 45.3155C54.3421 44.6421 53.9814 43.754 53.9814 42.8145V40.5534C53.9814 40.2756 54.1692 40.0331 54.4383 39.9637L54.659 39.9067C55.324 40.2941 56.1644 40.3253 56.8633 39.9519L59.9426 38.3072ZM27.7821 39.823H33.3498C35.0524 39.823 36.4376 41.2082 36.4376 42.9108V50.4379C32.8813 49.5537 29.7686 47.356 27.7186 44.1892C27.8334 43.7452 27.8938 43.2843 27.8938 42.8146V40.5534C27.8937 40.3004 27.8536 40.0553 27.7821 39.823ZM33.3498 37.948H25.4731C25.4081 37.3853 25.3751 36.8168 25.3751 36.2486C25.3751 35.5417 25.4266 34.8466 25.524 34.1662L35.0431 31.8694C38.2859 31.0871 41.7141 31.0871 44.9569 31.8694L54.476 34.1661C54.5734 34.8465 54.6249 35.5417 54.6249 36.2486C54.6249 36.8167 54.5914 37.3854 54.5264 37.948H46.6504C43.9139 37.948 41.6876 40.1743 41.6876 42.9108V50.776C41.1318 50.8395 40.569 50.8735 40.0001 50.8735C39.4312 50.8735 38.8684 50.8395 38.3126 50.776V42.9108C38.3126 40.1743 36.0863 37.948 33.3498 37.948ZM43.5626 42.9107C43.5626 41.2082 44.9477 39.8229 46.6504 39.8229H52.2181C52.1466 40.0553 52.1065 40.3003 52.1065 40.5533V42.8144C52.1065 43.2841 52.1668 43.745 52.2817 44.189C50.2317 47.3559 47.119 49.5535 43.5626 50.4378V42.9107ZM40.0001 21.6238C46.6348 21.6238 52.2509 26.0651 54.0338 32.1306L45.3967 30.0467C41.8662 29.195 38.1337 29.195 34.6035 30.0467L25.9664 32.1306C27.7492 26.0651 33.3653 21.6238 40.0001 21.6238ZM18.0217 41.7537L18.8004 38.9304C18.9333 38.449 19.1695 38.0078 19.4888 37.6349L19.7059 37.9796C19.7927 38.1174 19.9139 38.2303 20.0575 38.3071L23.1368 39.9518C23.8357 40.3251 24.6761 40.294 25.3411 39.9066L25.5619 39.9636C25.8309 40.033 26.0188 40.2755 26.0188 40.5533V42.8144C26.0188 43.7539 25.6581 44.642 25.003 45.3154L24.1364 46.2062L19.2428 45.1738L18.3438 43.804C17.9466 43.1988 17.8293 42.4515 18.0217 41.7537ZM40.0001 54.6235C34.3189 54.6235 28.9557 51.9791 25.483 47.5111L26.3469 46.6229C26.5026 46.4629 26.646 46.294 26.7795 46.1191C28.1473 47.9469 29.8874 49.486 31.8759 50.613C34.3411 52.0101 37.1504 52.7486 40.0002 52.7486C42.8503 52.7486 45.6601 52.0098 48.1256 50.6123C50.1136 49.4854 51.8533 47.9466 53.2208 46.1191C53.3543 46.2941 53.4976 46.463 53.6533 46.623L54.5181 47.5119C51.0491 51.9729 45.6574 54.6235 40.0001 54.6235Z" fill="url(#paint1_linear_5762_40031)"/>
<path d="M39.9993 17.875H40.0223C40.54 17.875 40.9598 17.4553 40.9598 16.9375C40.9598 16.4197 40.54 16 40.0223 16H39.9993C39.4815 16 39.0618 16.4197 39.0618 16.9375C39.0618 17.4553 39.4815 17.875 39.9993 17.875Z" fill="url(#paint2_linear_5762_40031)"/>
</g>
<defs>
<linearGradient id="paint0_linear_5762_40031" x1="16" y1="63.9985" x2="46.9016" y2="1.22319" gradientUnits="userSpaceOnUse">
<stop stop-color="#5D3CF2"/>
<stop offset="1" stop-color="#FD5631"/>
</linearGradient>
<linearGradient id="paint1_linear_5762_40031" x1="16" y1="63.9985" x2="46.9016" y2="1.22319" gradientUnits="userSpaceOnUse">
<stop stop-color="#5D3CF2"/>
<stop offset="1" stop-color="#FD5631"/>
</linearGradient>
<linearGradient id="paint2_linear_5762_40031" x1="16" y1="63.9985" x2="46.9016" y2="1.22319" gradientUnits="userSpaceOnUse">
<stop stop-color="#5D3CF2"/>
<stop offset="1" stop-color="#FD5631"/>
</linearGradient>
<clipPath id="clip0_5762_40031">
<rect width="48" height="48" fill="white" transform="translate(16 16)"/>
</clipPath>
</defs>
</svg>
