<svg width="80" height="80" viewBox="0 0 80 80" fill="none" xmlns="http://www.w3.org/2000/svg">
<rect opacity="0.5" width="80" height="80" rx="12" fill="#1F1B2D"/>
<g clip-path="url(#clip0_5762_40037)">
<path d="M61.6585 26.1776L61.7701 25.8646H63.0634C63.5807 25.8646 64.0001 25.4451 64.0001 24.9278C64.0001 24.4106 63.5807 23.9911 63.0634 23.9911H61.1097C60.9595 23.9911 60.8155 24.0271 60.6873 24.092L59.87 20.7644C59.455 19.0747 57.95 17.8945 56.2101 17.8945H46.8335C45.0936 17.8945 43.5886 19.0746 43.1735 20.7644L42.3562 24.092C42.228 24.0271 42.084 23.9911 41.9338 23.9911H39.9801C39.4628 23.9911 39.0434 24.4106 39.0434 24.9278C39.0434 25.4451 39.4628 25.8646 39.9801 25.8646H41.2734L41.385 26.1776C40.0191 26.686 39.0434 28.0027 39.0434 29.5435V29.8379H35.5823C35.1715 29.072 34.3631 28.5499 33.4348 28.5499H26.1283C25.2 28.5499 24.3917 29.072 23.9808 29.8379H18.9975C17.3447 29.8379 16 31.1825 16 32.8354V59.1105C16 60.7633 17.3447 62.108 18.9975 62.108H40.5656C42.2184 62.108 43.5631 60.7633 43.5631 59.1105V40.4027C43.6765 40.4207 43.7927 40.4303 43.911 40.4303H45.3395C46.5594 40.4303 47.552 39.4378 47.552 38.2179V36.4505H55.4915V38.2179C55.4915 39.4378 56.484 40.4303 57.7039 40.4303H59.1324C60.3523 40.4303 61.3449 39.4378 61.3449 38.2179V36.4505H63.0634C63.5807 36.4505 64.0001 36.031 64.0001 35.5138V29.5436C64 28.0027 63.0243 26.686 61.6585 26.1776ZM44.9929 21.2112C45.2016 20.3615 45.9585 19.768 46.8335 19.768H56.21C57.085 19.768 57.8418 20.3614 58.0505 21.2111L59.2152 25.9533H43.8282L44.9929 21.2112ZM26.1283 30.4232H33.4348C33.7447 30.4232 33.9968 30.6753 33.9968 30.9853V33.1397C33.9968 33.4497 33.7447 33.7018 33.4348 33.7018H26.1283C25.8184 33.7018 25.5663 33.4497 25.5663 33.1397V30.9853C25.5663 30.6754 25.8184 30.4232 26.1283 30.4232ZM41.6897 59.1104C41.6897 59.7302 41.1854 60.2345 40.5656 60.2345H18.9975C18.3777 60.2345 17.8734 59.7302 17.8734 59.1104V32.8353C17.8734 32.2155 18.3777 31.7112 18.9975 31.7112H23.6928V33.1397C23.6928 34.4827 24.7854 35.5752 26.1283 35.5752H33.4348C34.7777 35.5752 35.8703 34.4827 35.8703 33.1397V31.7112H40.5656C41.1854 31.7112 41.6897 32.2155 41.6897 32.8353V59.1104ZM45.6785 38.2178C45.6785 38.4047 45.5264 38.5568 45.3395 38.5568H43.911C43.7241 38.5568 43.5721 38.4047 43.5721 38.2178V36.4504H45.6785V38.2178ZM59.4714 38.2178C59.4714 38.4047 59.3193 38.5568 59.1324 38.5568H57.7039C57.517 38.5568 57.365 38.4047 57.365 38.2178V36.4504H59.4714V38.2178ZM62.1266 34.5769H43.5631V32.8353C43.5631 31.3014 42.4047 30.0336 40.9169 29.859V29.5434C40.9169 28.5979 41.6854 27.8285 42.6305 27.8269C42.6315 27.8269 42.6326 27.827 42.6336 27.827C42.6358 27.827 42.6379 27.8267 42.6401 27.8267H60.4033C60.4054 27.8267 60.4076 27.827 60.4097 27.827C60.4108 27.827 60.4118 27.8269 60.4128 27.8269C61.358 27.8286 62.1265 28.5979 62.1265 29.5434L62.1266 34.5769Z" fill="url(#paint0_linear_5762_40037)"/>
<path d="M46.101 30.2663C45.8546 30.2663 45.613 30.3665 45.4387 30.5408C45.2645 30.715 45.1643 30.9567 45.1643 31.203C45.1643 31.4494 45.2645 31.691 45.4387 31.8653C45.613 32.0395 45.8546 32.1397 46.101 32.1397C46.3474 32.1397 46.589 32.0396 46.7633 31.8653C46.9375 31.691 47.0377 31.4494 47.0377 31.203C47.0377 30.9567 46.9375 30.715 46.7633 30.5408C46.589 30.3665 46.3474 30.2663 46.101 30.2663Z" fill="url(#paint1_linear_5762_40037)"/>
<path d="M56.9435 30.2663C56.6962 30.2663 56.4555 30.3665 56.2813 30.5408C56.1061 30.715 56.0068 30.9567 56.0068 31.203C56.0068 31.4494 56.1061 31.691 56.2813 31.8653C56.4555 32.0395 56.6962 32.1397 56.9435 32.1397C57.1899 32.1397 57.4306 32.0396 57.6058 31.8653C57.78 31.691 57.8802 31.4494 57.8802 31.203C57.8802 30.9567 57.78 30.715 57.6058 30.5408C57.4306 30.3665 57.1899 30.2663 56.9435 30.2663Z" fill="url(#paint2_linear_5762_40037)"/>
<path d="M53.1955 30.2913H49.847C49.3297 30.2913 48.9103 30.7107 48.9103 31.228C48.9103 31.7452 49.3297 32.1647 49.847 32.1647H53.1955C53.7129 32.1647 54.1322 31.7452 54.1322 31.228C54.1322 30.7107 53.7129 30.2913 53.1955 30.2913Z" fill="url(#paint3_linear_5762_40037)"/>
<path d="M24.8386 45.7551L22.8782 47.7156L22.1734 47.0108C21.8076 46.6451 21.2144 46.6451 20.8486 47.0108C20.4828 47.3766 20.4828 47.9697 20.8486 48.3356L22.2158 49.7028C22.3987 49.8857 22.6385 49.9772 22.8782 49.9772C23.1179 49.9772 23.3577 49.8857 23.5405 49.7028L26.1634 47.08C26.5291 46.7142 26.5291 46.1211 26.1634 45.7552C25.7976 45.3894 25.2044 45.3894 24.8386 45.7551Z" fill="url(#paint4_linear_5762_40037)"/>
<path d="M37.9556 47.3094H30.0246C29.5073 47.3094 29.0879 47.7289 29.0879 48.2461C29.0879 48.7634 29.5073 49.1828 30.0246 49.1828H37.9556C38.473 49.1828 38.8923 48.7634 38.8923 48.2461C38.8923 47.7289 38.473 47.3094 37.9556 47.3094Z" fill="url(#paint5_linear_5762_40037)"/>
<path d="M24.8386 38.2611L22.8782 40.2216L22.1734 39.5168C21.8076 39.1511 21.2144 39.1511 20.8486 39.5168C20.4828 39.8826 20.4828 40.4757 20.8486 40.8416L22.2158 42.2088C22.3987 42.3917 22.6385 42.4832 22.8782 42.4832C23.1179 42.4832 23.3577 42.3917 23.5405 42.2088L26.1634 39.586C26.5291 39.2202 26.5291 38.6271 26.1634 38.2612C25.7976 37.8954 25.2044 37.8954 24.8386 38.2611Z" fill="url(#paint6_linear_5762_40037)"/>
<path d="M37.9552 39.8154C37.7088 39.8154 37.4672 39.9156 37.2929 40.0899C37.1187 40.2642 37.0185 40.5058 37.0185 40.7521C37.0185 40.9985 37.1187 41.2402 37.2929 41.4143C37.4672 41.5885 37.7088 41.6889 37.9552 41.6889C38.2016 41.6889 38.4432 41.5886 38.6175 41.4143C38.7917 41.2402 38.8919 40.9985 38.8919 40.7521C38.8919 40.5058 38.7917 40.2641 38.6175 40.0899C38.4432 39.9156 38.2016 39.8154 37.9552 39.8154Z" fill="url(#paint7_linear_5762_40037)"/>
<path d="M30.0257 41.6889H34.2097C34.7271 41.6889 35.1465 41.2694 35.1465 40.7521C35.1465 40.2349 34.7271 39.8154 34.2097 39.8154H30.0257C29.5083 39.8154 29.0889 40.2349 29.0889 40.7521C29.0889 41.2694 29.5083 41.6889 30.0257 41.6889Z" fill="url(#paint8_linear_5762_40037)"/>
<path d="M24.8386 53.2491L22.8782 55.2096L22.1734 54.5048C21.8076 54.1391 21.2144 54.1391 20.8486 54.5048C20.4828 54.8706 20.4828 55.4637 20.8486 55.8296L22.2158 57.1968C22.3987 57.3797 22.6385 57.4712 22.8782 57.4712C23.1179 57.4712 23.3577 57.3797 23.5405 57.1968L26.1634 54.574C26.5291 54.2082 26.5291 53.6151 26.1634 53.2492C25.7976 52.8834 25.2044 52.8834 24.8386 53.2491Z" fill="url(#paint9_linear_5762_40037)"/>
<path d="M37.9556 54.7998H30.0246C29.5073 54.7998 29.0879 55.2193 29.0879 55.7366C29.0879 56.2538 29.5073 56.6733 30.0246 56.6733H37.9556C38.473 56.6733 38.8923 56.2538 38.8923 55.7366C38.8923 55.2193 38.473 54.7998 37.9556 54.7998Z" fill="url(#paint10_linear_5762_40037)"/>
</g>
<defs>
<linearGradient id="paint0_linear_5762_40037" x1="16" y1="62.108" x2="43.0186" y2="2.52222" gradientUnits="userSpaceOnUse">
<stop stop-color="#5D3CF2"/>
<stop offset="1" stop-color="#FD5631"/>
</linearGradient>
<linearGradient id="paint1_linear_5762_40037" x1="16" y1="62.108" x2="43.0186" y2="2.52222" gradientUnits="userSpaceOnUse">
<stop stop-color="#5D3CF2"/>
<stop offset="1" stop-color="#FD5631"/>
</linearGradient>
<linearGradient id="paint2_linear_5762_40037" x1="16" y1="62.108" x2="43.0186" y2="2.52222" gradientUnits="userSpaceOnUse">
<stop stop-color="#5D3CF2"/>
<stop offset="1" stop-color="#FD5631"/>
</linearGradient>
<linearGradient id="paint3_linear_5762_40037" x1="16" y1="62.108" x2="43.0186" y2="2.52222" gradientUnits="userSpaceOnUse">
<stop stop-color="#5D3CF2"/>
<stop offset="1" stop-color="#FD5631"/>
</linearGradient>
<linearGradient id="paint4_linear_5762_40037" x1="16" y1="62.108" x2="43.0186" y2="2.52222" gradientUnits="userSpaceOnUse">
<stop stop-color="#5D3CF2"/>
<stop offset="1" stop-color="#FD5631"/>
</linearGradient>
<linearGradient id="paint5_linear_5762_40037" x1="16" y1="62.108" x2="43.0186" y2="2.52222" gradientUnits="userSpaceOnUse">
<stop stop-color="#5D3CF2"/>
<stop offset="1" stop-color="#FD5631"/>
</linearGradient>
<linearGradient id="paint6_linear_5762_40037" x1="16" y1="62.108" x2="43.0186" y2="2.52222" gradientUnits="userSpaceOnUse">
<stop stop-color="#5D3CF2"/>
<stop offset="1" stop-color="#FD5631"/>
</linearGradient>
<linearGradient id="paint7_linear_5762_40037" x1="16" y1="62.108" x2="43.0186" y2="2.52222" gradientUnits="userSpaceOnUse">
<stop stop-color="#5D3CF2"/>
<stop offset="1" stop-color="#FD5631"/>
</linearGradient>
<linearGradient id="paint8_linear_5762_40037" x1="16" y1="62.108" x2="43.0186" y2="2.52222" gradientUnits="userSpaceOnUse">
<stop stop-color="#5D3CF2"/>
<stop offset="1" stop-color="#FD5631"/>
</linearGradient>
<linearGradient id="paint9_linear_5762_40037" x1="16" y1="62.108" x2="43.0186" y2="2.52222" gradientUnits="userSpaceOnUse">
<stop stop-color="#5D3CF2"/>
<stop offset="1" stop-color="#FD5631"/>
</linearGradient>
<linearGradient id="paint10_linear_5762_40037" x1="16" y1="62.108" x2="43.0186" y2="2.52222" gradientUnits="userSpaceOnUse">
<stop stop-color="#5D3CF2"/>
<stop offset="1" stop-color="#FD5631"/>
</linearGradient>
<clipPath id="clip0_5762_40037">
<rect width="48" height="48" fill="white" transform="translate(16 16)"/>
</clipPath>
</defs>
</svg>
