<svg width="80" height="80" viewBox="0 0 80 80" fill="none" xmlns="http://www.w3.org/2000/svg">
<rect opacity="0.5" width="80" height="80" rx="12" fill="#1F1B2D"/>
<g clip-path="url(#clip0_5762_40025)">
<path d="M32.9508 33.201C32.5459 32.8782 31.956 32.9449 31.6334 33.3497L31.6178 33.3693C31.2951 33.7741 31.3617 34.364 31.7665 34.6868C31.9392 34.8244 32.1455 34.8913 32.3503 34.8913C32.6258 34.8913 32.8989 34.7703 33.084 34.5381L33.0995 34.5185C33.4222 34.1137 33.3556 33.5238 32.9508 33.201Z" fill="url(#paint0_linear_5762_40025)"/>
<path d="M47.5571 32.4429C45.8344 30.72 43.5537 29.6297 41.1355 29.3727C38.7525 29.1194 36.3306 29.6789 34.314 30.948C33.8758 31.2238 33.7441 31.8026 34.0198 32.2408C34.2955 32.679 34.8743 32.8109 35.3127 32.535C38.8126 30.3326 43.3027 30.8399 46.2313 33.7687C46.4144 33.9518 46.6543 34.0433 46.8942 34.0433C47.1341 34.0433 47.374 33.9517 47.5571 33.7687C47.9232 33.4026 47.9232 32.809 47.5571 32.4429Z" fill="url(#paint1_linear_5762_40025)"/>
<path d="M63.7107 29.8244L59.4681 25.5818C59.1019 25.2158 58.5084 25.2158 58.1422 25.5818L39.9483 43.7756L30.7173 34.5446C30.3511 34.1785 29.7577 34.1785 29.3914 34.5446L25.1488 38.7873C24.973 38.9631 24.8742 39.2016 24.8742 39.4502C24.8742 39.6988 24.973 39.9373 25.1488 40.1131L39.2854 54.2497C39.4685 54.4327 39.7084 54.5243 39.9483 54.5243C40.1882 54.5243 40.4281 54.4327 40.6112 54.2497L49.2394 45.6215C49.6055 45.2554 49.6055 44.6618 49.2394 44.2956C48.8732 43.9296 48.2798 43.9296 47.9135 44.2956L39.9483 52.261L27.1376 39.4503L30.0544 36.5335L39.2854 45.7645C39.6516 46.1305 40.245 46.1305 40.6113 45.7645L58.8052 27.5705L61.7219 30.4873L52.7886 39.4207C52.4225 39.7868 52.4225 40.3804 52.7886 40.7466C53.1548 41.1127 53.7482 41.1127 54.1145 40.7466L63.7107 31.1503C64.0768 30.7842 64.0768 30.1906 63.7107 29.8244Z" fill="url(#paint2_linear_5762_40025)"/>
<path d="M51.8122 41.7246C51.6369 41.5503 51.396 41.4499 51.1485 41.4499C50.9019 41.4499 50.66 41.5503 50.4857 41.7246C50.3114 41.899 50.211 42.1409 50.211 42.3874C50.211 42.634 50.3113 42.8759 50.4857 43.0503C50.66 43.2246 50.9019 43.3249 51.1485 43.3249C51.395 43.3249 51.6369 43.2246 51.8122 43.0503C51.9865 42.8759 52.086 42.634 52.086 42.3874C52.086 42.1399 51.9865 41.899 51.8122 41.7246Z" fill="url(#paint3_linear_5762_40025)"/>
<path d="M63.6906 45.318L62.6086 44.3411C61.3886 43.2396 60.6863 41.6673 60.6796 40.0242C60.6776 39.5148 60.2793 39.0786 59.7702 39.0637C59.2396 39.0482 58.8045 39.4737 58.8045 40.0008C58.8045 42.1821 59.733 44.2713 61.3521 45.7329L61.9427 46.2662L59.9435 51.0864L59.1466 51.0457C56.9715 50.9345 54.8368 51.7548 53.2953 53.2963C51.7539 54.8377 50.9337 56.9704 51.0448 59.1476L51.0855 59.9444L46.2653 61.9437L45.732 61.3531C44.2704 59.734 42.1811 58.8055 39.9998 58.8055C37.8186 58.8055 35.7293 59.734 34.2676 61.3531L33.7344 61.9437L28.9141 59.9443L28.9549 59.1475C29.0661 56.9703 28.2458 54.8375 26.7043 53.2961C25.1629 51.7548 23.031 50.9341 20.853 51.0456L20.0563 51.0863L18.057 46.2661L18.649 45.7315C20.2671 44.2707 21.195 42.1826 21.195 39.9988C21.195 37.8188 20.2671 35.7307 18.649 34.2698L18.057 33.7353L20.0563 28.9151L20.853 28.9558C23.0299 29.0674 25.1629 28.2467 26.7045 26.7052C28.2459 25.1638 29.0661 23.0311 28.955 20.8538L28.9142 20.057L33.7345 18.0577L34.269 18.6497C35.7299 20.2678 37.8179 21.1958 40.0017 21.1958C42.1816 21.1958 44.2698 20.2678 45.7306 18.6497L46.2651 18.0576L51.0853 20.0569L51.0446 20.8537C50.9517 22.6732 51.5093 24.4617 52.5947 25.9C52.937 26.3535 53.603 26.3972 54.0047 25.9954C54.3361 25.664 54.3699 25.1403 54.0879 24.766C53.268 23.6777 52.8468 22.3253 52.9171 20.9493L52.9915 19.4922C53.0116 19.0963 52.7806 18.7305 52.4145 18.5785L46.3722 16.0723C46.0055 15.92 45.583 16.0155 45.3171 16.31L44.339 17.3934C43.233 18.6183 41.6522 19.321 39.9979 19.321C38.3475 19.321 36.7667 18.6184 35.6608 17.3934L34.6827 16.31C34.4167 16.0155 33.9943 15.9201 33.6276 16.0723L27.5851 18.5786C27.2189 18.7305 26.9878 19.0964 27.008 19.4924L27.0825 20.9495C27.1666 22.5977 26.5456 24.2124 25.3786 25.3794C24.2115 26.5465 22.5983 27.1671 20.9487 27.0833L19.4915 27.0089C19.0962 26.988 18.7296 27.2198 18.5777 27.5859L16.0714 33.6285C15.9195 33.995 16.0147 34.4176 16.3092 34.6835L17.3926 35.6616C18.6176 36.7676 19.3202 38.3484 19.3202 40.0027C19.3202 41.6531 18.6177 43.234 17.3926 44.3399L16.3092 45.318C16.0146 45.5839 15.9195 46.0065 16.0714 46.373L18.5777 52.4155C18.7296 52.7817 19.096 53.0126 19.4915 52.9925L20.9487 52.9181C22.5972 52.8346 24.2115 53.455 25.3786 54.622C26.5456 55.789 27.1666 57.4036 27.0825 59.0518L27.008 60.5089C26.9878 60.9049 27.2189 61.2708 27.5851 61.4227L33.6276 63.929C33.9941 64.081 34.4165 63.9858 34.6827 63.6913L35.6595 62.6093C36.7663 61.3833 38.3483 60.6803 39.9999 60.6803C41.6516 60.6803 43.2336 61.3834 44.3403 62.6093L45.3171 63.6913C45.4987 63.8924 45.7532 64.0006 46.0133 64.0006C46.134 64.0006 46.2559 63.9772 46.3722 63.9289L52.4147 61.4226C52.7809 61.2708 53.012 60.9049 52.9918 60.5089L52.9174 59.0517C52.8332 57.4035 53.4542 55.7888 54.6212 54.6218C55.7881 53.4548 57.4013 52.8344 59.0511 52.9179L60.5084 52.9923C60.902 53.0122 61.2703 52.7815 61.4221 52.4152L63.9284 46.3727C64.0803 46.0065 63.9852 45.5839 63.6906 45.318Z" fill="url(#paint4_linear_5762_40025)"/>
</g>
<defs>
<linearGradient id="paint0_linear_5762_40025" x1="15.9999" y1="64.0006" x2="46.9031" y2="1.22412" gradientUnits="userSpaceOnUse">
<stop stop-color="#5D3CF2"/>
<stop offset="1" stop-color="#FD5631"/>
</linearGradient>
<linearGradient id="paint1_linear_5762_40025" x1="15.9999" y1="64.0006" x2="46.9031" y2="1.22412" gradientUnits="userSpaceOnUse">
<stop stop-color="#5D3CF2"/>
<stop offset="1" stop-color="#FD5631"/>
</linearGradient>
<linearGradient id="paint2_linear_5762_40025" x1="15.9999" y1="64.0006" x2="46.9031" y2="1.22412" gradientUnits="userSpaceOnUse">
<stop stop-color="#5D3CF2"/>
<stop offset="1" stop-color="#FD5631"/>
</linearGradient>
<linearGradient id="paint3_linear_5762_40025" x1="15.9999" y1="64.0006" x2="46.9031" y2="1.22412" gradientUnits="userSpaceOnUse">
<stop stop-color="#5D3CF2"/>
<stop offset="1" stop-color="#FD5631"/>
</linearGradient>
<linearGradient id="paint4_linear_5762_40025" x1="15.9999" y1="64.0006" x2="46.9031" y2="1.22412" gradientUnits="userSpaceOnUse">
<stop stop-color="#5D3CF2"/>
<stop offset="1" stop-color="#FD5631"/>
</linearGradient>
<clipPath id="clip0_5762_40025">
<rect width="48" height="48" fill="white" transform="translate(16 16)"/>
</clipPath>
</defs>
</svg>
