<svg width="24" height="24" viewBox="0 0 24 24" fill="none" xmlns="http://www.w3.org/2000/svg">
<path fill-rule="evenodd" clip-rule="evenodd" d="M12 4C7.58172 4 4 7.58172 4 12C4 16.4183 7.58172 20 12 20C16.4183 20 20 16.4183 20 12C20 7.58172 16.4183 4 12 4ZM2 12C2 6.47715 6.47715 2 12 2C17.5228 2 22 6.47715 22 12C22 17.5228 17.5228 22 12 22C6.47715 22 2 17.5228 2 12Z" fill="white"/>
<path fill-rule="evenodd" clip-rule="evenodd" d="M10.0528 7.10557C10.3916 6.93618 10.797 6.97274 11.1 7.2L16.1 10.95C16.3518 11.1389 16.5 11.4352 16.5 11.75C16.5 12.0648 16.3518 12.3611 16.1 12.55L11.1 16.3C10.797 16.5273 10.3916 16.5638 10.0528 16.3944C9.714 16.225 9.5 15.8788 9.5 15.5V8C9.5 7.62123 9.714 7.27496 10.0528 7.10557ZM11.5 10V13.5L13.8333 11.75L11.5 10Z" fill="white"/>
</svg>
